<svg width="32.000000" height="32.000000" viewBox="0 0 32 32" fill="none" xmlns="http://www.w3.org/2000/svg" xmlns:xlink="http://www.w3.org/1999/xlink">
	<desc>
			Created with Pixso.
	</desc>
	<defs/>
	<g opacity="0.000100">
		<rect id="Rectangle" width="32.000000" height="32.000000" fill="#000000" fill-opacity="1.000000"/>
	</g>
	<path id="Shape" d="M27.6133 25.72L23.0801 21.2C24.5427 19.3366 25.3362 17.0356 25.3333 14.6667C25.3333 8.77563 20.5576 4 14.6667 4C8.77563 4 4 8.77563 4 14.6667C4 20.5577 8.77563 25.3333 14.6667 25.3333C17.0356 25.3363 19.3367 24.5426 21.2 23.08L25.72 27.6133C25.9705 27.8658 26.311 28.0077 26.6667 28.0077C27.0222 28.0077 27.363 27.8658 27.6133 27.6133C27.8657 27.363 28.0078 27.0222 28.0078 26.6667C28.0078 26.3112 27.8657 25.9704 27.6133 25.72ZM14.6667 6.66666C10.2483 6.66666 6.66675 10.2484 6.66675 14.6667C6.66675 19.0849 10.2483 22.6667 14.6667 22.6667C19.085 22.6667 22.6667 19.0849 22.6667 14.6667C22.6667 10.2484 19.085 6.66666 14.6667 6.66666Z" clip-rule="evenodd" fill="#FFFFFF" fill-opacity="1.000000" fill-rule="evenodd"/>
</svg>
